<?xml version="1.0" standalone="no"?>
<!DOCTYPE svg PUBLIC "-//W3C//DTD SVG 20010904//EN"
 "http://www.w3.org/TR/2001/REC-SVG-20010904/DTD/svg10.dtd">
<svg version="1.0" xmlns="http://www.w3.org/2000/svg"
 width="778.000000pt" height="157.000000pt" viewBox="0 0 778.000000 157.000000"
 preserveAspectRatio="xMidYMid meet">
<metadata>
Created by potrace 1.16, written by Peter Selinger 2001-2019
</metadata>
<g transform="translate(0.000000,157.000000) scale(0.100000,-0.100000)"
fill="#000000" stroke="none">
<path d="M704 1560 c-98 -21 -140 -53 -390 -303 -212 -213 -245 -250 -275
-312 -31 -63 -34 -78 -34 -160 0 -82 3 -97 34 -160 30 -62 62 -99 275 -311
259 -260 290 -283 403 -304 77 -13 176 1 242 35 50 26 521 484 521 507 0 16
-171 188 -186 188 -6 0 -107 -97 -225 -216 -118 -119 -227 -222 -243 -231 -59
-31 -76 -19 -318 225 -124 125 -229 237 -232 249 -4 13 -1 34 8 50 24 46 448
461 478 468 15 4 37 4 50 0 13 -4 246 -229 518 -500 534 -532 526 -526 607
-503 46 13 90 59 99 103 14 77 12 80 -520 612 -458 458 -507 505 -566 532 -72
34 -174 47 -246 31z"/>
<path d="M3417 1072 c-98 -273 -177 -500 -177 -504 0 -5 49 -8 109 -8 l109 0
32 95 32 95 193 0 193 0 31 -86 c17 -47 31 -89 31 -95 0 -5 49 -9 115 -9 l114
0 -48 137 c-27 76 -108 302 -180 502 -72 200 -131 366 -131 368 0 1 -55 3
-122 3 l-123 0 -178 -498z m367 43 c36 -105 66 -191 66 -192 0 -2 -61 -3 -135
-3 l-134 0 67 194 c37 107 68 194 69 192 1 -1 31 -87 67 -191z"/>
<path d="M4320 1065 l0 -505 270 0 270 0 0 85 0 85 -165 0 -165 0 0 420 0 420
-105 0 -105 0 0 -505z"/>
<path d="M4980 1065 l0 -505 105 0 105 0 0 190 0 190 110 0 c217 0 324 49 391
180 32 63 34 194 3 261 -46 100 -129 158 -255 178 -35 6 -153 11 -261 11
l-198 0 0 -505z m461 302 c42 -28 59 -60 59 -115 0 -102 -47 -134 -202 -140
l-108 -4 0 141 0 141 109 0 c96 0 112 -3 142 -23z"/>
<path d="M5850 1065 l0 -505 105 0 105 0 0 210 0 210 210 0 210 0 0 -210 0
-210 105 0 105 0 0 505 0 505 -105 0 -105 0 0 -205 0 -205 -210 0 -210 0 0
205 0 205 -105 0 -105 0 0 -505z"/>
<path d="M6997 1072 c-98 -273 -177 -500 -177 -504 0 -5 49 -8 109 -8 l109 0
32 95 32 95 193 0 193 0 33 -95 34 -95 112 0 112 0 -24 67 c-12 38 -93 263
-179 502 -86 239 -156 436 -156 438 0 1 -55 3 -122 3 l-123 0 -178 -498z m363
53 c35 -99 65 -186 67 -192 4 -10 -26 -13 -131 -13 l-135 0 67 194 c37 107 67
194 68 193 1 -1 30 -83 64 -182z"/>
<path d="M2635 1357 c-109 -36 -187 -104 -231 -200 -77 -170 -46 -382 75 -502
150 -150 433 -147 577 7 42 45 83 117 84 146 0 9 -29 12 -112 12 l-113 0 -17
-30 c-20 -35 -87 -69 -136 -70 -37 0 -97 23 -125 48 -11 9 -28 34 -38 54 -37
72 -52 68 272 68 l291 0 -4 98 c-8 171 -72 278 -206 344 -60 30 -75 33 -172
35 -67 2 -120 -2 -145 -10z m177 -167 c44 -13 93 -52 113 -91 31 -59 33 -59
-166 -59 l-180 0 7 23 c20 66 52 102 111 123 47 16 67 17 115 4z"/>
<path d="M1845 1286 c-16 -8 -86 -70 -154 -139 -105 -106 -122 -127 -113 -143
15 -29 168 -174 182 -174 19 0 253 247 268 283 28 64 -3 137 -71 168 -50 22
-72 23 -112 5z"/>
<path d="M2905 379 c-39 -11 -55 -34 -55 -79 0 -44 21 -67 76 -81 54 -15 76
-36 63 -60 -13 -26 -65 -25 -81 1 -8 12 -24 20 -39 20 -23 0 -26 -3 -21 -25
10 -57 97 -84 161 -50 32 16 41 33 41 74 0 40 -19 59 -79 79 -62 21 -82 42
-62 66 18 22 48 20 68 -4 15 -17 73 -29 73 -16 0 26 -26 60 -55 71 -38 17 -47
17 -90 4z"/>
<path d="M3265 379 c-39 -11 -55 -34 -55 -79 0 -44 21 -67 76 -81 54 -15 76
-36 63 -60 -13 -26 -65 -25 -81 1 -8 12 -24 20 -39 20 -23 0 -26 -3 -21 -25
10 -57 97 -84 161 -50 32 16 41 33 41 74 0 40 -19 59 -79 79 -62 21 -82 42
-62 66 18 22 48 20 68 -4 15 -17 73 -29 73 -16 0 26 -26 60 -55 71 -38 17 -47
17 -90 4z"/>
<path d="M3955 379 c-39 -11 -55 -34 -55 -79 0 -44 21 -67 76 -81 54 -15 76
-36 63 -60 -13 -26 -65 -25 -81 1 -8 12 -24 20 -39 20 -23 0 -26 -3 -21 -25
10 -57 97 -84 161 -50 32 16 41 33 41 74 0 40 -19 59 -79 79 -62 21 -82 42
-62 66 18 22 48 20 68 -4 15 -17 73 -29 73 -16 0 26 -26 60 -55 71 -38 17 -47
17 -90 4z"/>
<path d="M4315 379 c-39 -11 -55 -34 -55 -79 0 -44 21 -67 76 -81 54 -15 76
-36 63 -60 -13 -26 -65 -25 -81 1 -8 12 -24 20 -39 20 -23 0 -26 -3 -21 -25
10 -57 97 -84 161 -50 32 16 41 33 41 74 0 40 -19 59 -79 79 -62 21 -82 42
-62 66 18 22 48 20 68 -4 15 -17 73 -29 73 -16 0 26 -26 60 -55 71 -38 17 -47
17 -90 4z"/>
<path d="M6826 380 c-60 -19 -96 -73 -96 -147 0 -60 26 -104 73 -126 71 -34
162 -12 198 47 39 64 17 171 -43 210 -30 19 -95 28 -132 16z m88 -51 c34 -16
60 -72 52 -115 -13 -66 -95 -96 -149 -54 -66 52 -28 178 55 180 9 0 28 -5 42
-11z"/>
<path d="M7257 376 c-51 -19 -63 -31 -83 -82 -40 -104 27 -204 136 -204 113 0
179 106 132 213 -31 69 -110 100 -185 73z m121 -72 c35 -40 27 -117 -17 -151
-29 -22 -86 -16 -115 13 -46 46 -30 140 28 164 32 14 79 3 104 -26z"/>
<path d="M2529 353 c-27 -71 -89 -247 -89 -255 0 -4 13 -8 29 -8 25 0 31 5 36
30 6 29 8 30 65 30 57 0 59 -1 65 -30 5 -25 11 -30 36 -30 16 0 29 4 29 8 0 4
-22 68 -49 142 -47 132 -49 135 -80 138 -26 3 -33 -1 -42 -25z"/>
<path d="M3570 235 l0 -145 85 0 c84 0 85 0 85 25 0 24 -3 25 -55 25 l-55 0 0
40 0 40 50 0 c43 0 50 3 50 20 0 17 -7 20 -50 20 l-50 0 0 40 0 40 55 0 c48 0
55 2 55 20 0 18 -7 20 -85 20 l-85 0 0 -145z"/>
<path d="M4620 235 l0 -145 30 0 30 0 1 83 1 82 38 -82 c53 -112 65 -111 118
10 l41 92 1 -92 c0 -92 0 -93 25 -93 l25 0 0 145 0 145 -29 0 c-26 0 -31 -7
-71 -97 -24 -54 -46 -101 -49 -105 -3 -4 -26 40 -51 97 -44 102 -46 105 -77
105 l-33 0 0 -145z"/>
<path d="M5100 235 l0 -145 80 0 c79 0 80 0 80 25 0 24 -3 25 -55 25 l-55 0 0
40 0 40 50 0 c43 0 50 3 50 20 0 17 -7 20 -50 20 l-50 0 0 40 0 40 55 0 c48 0
55 2 55 20 0 18 -7 20 -80 20 l-80 0 0 -145z"/>
<path d="M5420 235 l0 -145 30 0 29 0 3 97 3 97 64 -97 c51 -77 68 -97 87 -97
l24 0 0 145 0 145 -25 0 c-25 0 -25 0 -25 -97 l0 -98 -65 98 c-58 87 -69 97
-95 97 l-30 0 0 -145z"/>
<path d="M5820 360 c0 -17 7 -20 40 -20 l40 0 0 -125 0 -125 25 0 25 0 0 125
0 125 40 0 c33 0 40 3 40 20 0 19 -7 20 -105 20 -98 0 -105 -1 -105 -20z"/>
<path d="M6380 360 c0 -17 7 -20 40 -20 l40 0 0 -125 0 -125 25 0 25 0 0 125
0 125 40 0 c33 0 40 3 40 20 0 19 -7 20 -105 20 -98 0 -105 -1 -105 -20z"/>
<path d="M7610 235 l0 -145 75 0 c73 0 75 1 75 25 0 23 -4 25 -45 25 l-45 0 0
120 0 120 -30 0 -30 0 0 -145z"/>
</g>
</svg>
